<svg xmlns="http://www.w3.org/2000/svg" xmlns:xlink="http://www.w3.org/1999/xlink" viewBox="0 0 432.89 58.54"><title>The Groove Realty</title><defs><style>.cls-1{isolation:isolate;}.cls-2{fill:#fff;}.cls-3{opacity:0.39;mix-blend-mode:color-burn;fill:url(#linear-gradient);}.cls-4{fill:url(#linear-gradient-2);}.cls-5{fill:url(#linear-gradient-3);}.cls-6{fill:url(#linear-gradient-4);}.cls-7,.cls-8{mix-blend-mode:multiply;}.cls-7{fill:url(#linear-gradient-5);}.cls-8{fill:url(#linear-gradient-6);}</style><linearGradient id="linear-gradient" y1="29.27" x2="58.54" y2="29.27" gradientUnits="userSpaceOnUse"><stop offset="0" stop-color="#e4e5e6"/><stop offset="0.17" stop-color="#d7d8d9"/><stop offset="0.48" stop-color="#b4b5b7"/><stop offset="0.89" stop-color="#7d7e80"/><stop offset="1" stop-color="#6d6e71"/></linearGradient><linearGradient id="linear-gradient-2" y1="29.27" x2="58.54" y2="29.27" gradientUnits="userSpaceOnUse"><stop offset="0" stop-color="aqua"/><stop offset="0.14" stop-color="#02f2f8"/><stop offset="0.41" stop-color="#07cfe6"/><stop offset="0.76" stop-color="#0f98c8"/><stop offset="1" stop-color="#156fb3"/></linearGradient><linearGradient id="linear-gradient-3" x1="24.74" y1="37.25" x2="58.54" y2="37.25" gradientUnits="userSpaceOnUse"><stop offset="0" stop-color="aqua"/><stop offset="0.14" stop-color="#01fafc"/><stop offset="0.31" stop-color="#03eaf4"/><stop offset="0.51" stop-color="#07d1e7"/><stop offset="0.71" stop-color="#0cadd4"/><stop offset="0.93" stop-color="#1380bc"/><stop offset="1" stop-color="#156fb3"/></linearGradient><linearGradient id="linear-gradient-4" x1="3.84" y1="41.01" x2="50.34" y2="41.01" gradientUnits="userSpaceOnUse"><stop offset="0.02" stop-color="#156fb3"/><stop offset="0.55" stop-color="#0df"/><stop offset="0.63" stop-color="#03d0f6"/><stop offset="0.78" stop-color="#09adde"/><stop offset="0.98" stop-color="#1476b8"/><stop offset="1" stop-color="#156fb3"/></linearGradient><linearGradient id="linear-gradient-5" x1="28.08" y1="51.3" x2="13.11" y2="36.7" gradientUnits="userSpaceOnUse"><stop offset="0" stop-color="#fff" stop-opacity="0"/><stop offset="0.13" stop-color="#e0e0e0" stop-opacity="0.25"/><stop offset="0.3" stop-color="#bdbdbd" stop-opacity="0.52"/><stop offset="0.47" stop-color="#a3a3a3" stop-opacity="0.73"/><stop offset="0.64" stop-color="#8f8f8f" stop-opacity="0.88"/><stop offset="0.82" stop-color="#848484" stop-opacity="0.97"/><stop offset="1" stop-color="gray"/></linearGradient><linearGradient id="linear-gradient-6" x1="26.62" y1="47.84" x2="50.35" y2="47.84" gradientUnits="userSpaceOnUse"><stop offset="0" stop-color="#fff" stop-opacity="0"/><stop offset="0.09" stop-color="#f0f0f0" stop-opacity="0.12"/><stop offset="0.39" stop-color="#c0c0c1" stop-opacity="0.5"/><stop offset="0.65" stop-color="#9d9d9f" stop-opacity="0.77"/><stop offset="0.86" stop-color="#88888b" stop-opacity="0.94"/><stop offset="1" stop-color="#808083"/></linearGradient></defs><title>TGR-web-logo-horizontal</title><g class="cls-1"><g id="Layer_1" data-name="Layer 1"><path class="cls-2" d="M96.42,20H89V18.56h16.52V20H98V40H96.42Z"/><path class="cls-2" d="M110.31,18.56h1.59v9.91h13.7V18.56h1.59V40H125.6v-10H111.9V40h-1.59Z"/><path class="cls-2" d="M133.55,18.56h15.24V20H135.14v8.41h12.27v1.47H135.14v8.6h13.8V40H133.55Z"/><path class="cls-2" d="M162.27,29.33v-.06c0-5.78,4.19-11.08,10.58-11.08A11.22,11.22,0,0,1,180.69,21l-1,1.19a9.66,9.66,0,0,0-6.89-2.57c-5.2,0-8.84,4.41-8.84,9.58v.06c0,5.53,3.46,9.66,9.18,9.66a11,11,0,0,0,6.82-2.44V30.34h-7.16V28.87h8.69v8.26A12.89,12.89,0,0,1,173,40.34C166.28,40.34,162.27,35.35,162.27,29.33Z"/><path class="cls-2" d="M187.2,18.56h9a8.43,8.43,0,0,1,6,2.11,5.66,5.66,0,0,1,1.63,4v.06c0,3.58-2.66,5.63-6.27,6.12L204.63,40h-2l-6.82-8.87h-7V40H187.2ZM196,29.67c3.58,0,6.24-1.81,6.24-4.9v-.06c0-2.88-2.27-4.68-6.15-4.68h-7.31v9.64Z"/><path class="cls-2" d="M208.36,29.33v-.06a10.78,10.78,0,0,1,10.8-11.08c6.48,0,10.74,5.18,10.74,11v.06a10.78,10.78,0,0,1-10.8,11.07C212.61,40.34,208.36,35.17,208.36,29.33Zm19.88,0v-.06c0-5.29-3.85-9.64-9.14-9.64S210,23.91,210,29.21v.06c0,5.29,3.86,9.63,9.15,9.63S228.24,34.62,228.24,29.33Z"/><path class="cls-2" d="M234.36,29.33v-.06a10.78,10.78,0,0,1,10.8-11.08c6.48,0,10.73,5.18,10.73,11v.06A10.77,10.77,0,0,1,245.1,40.34C238.61,40.34,234.36,35.17,234.36,29.33Zm19.88,0v-.06c0-5.29-3.85-9.64-9.14-9.64S236,23.91,236,29.21v.06c0,5.29,3.86,9.63,9.15,9.63S254.24,34.62,254.24,29.33Z"/><path class="cls-2" d="M258.25,18.56H260l8.38,19.7,8.41-19.7h1.69l-9.43,21.57h-1.4Z"/><path class="cls-2" d="M283,18.56h15.23V20H284.61v8.41h12.27v1.47H284.61v8.6h13.8V40H283Z"/><path class="cls-2" d="M312.69,18.56h9a8.43,8.43,0,0,1,6,2.11,5.66,5.66,0,0,1,1.63,4v.06c0,3.58-2.66,5.63-6.27,6.12L330.12,40h-2l-6.82-8.87h-7V40h-1.59Zm8.81,11.11c3.58,0,6.24-1.81,6.24-4.9v-.06c0-2.88-2.27-4.68-6.15-4.68h-7.31v9.64Z"/><path class="cls-2" d="M334.8,18.56H350V20H336.39v8.41h12.27v1.47H336.39v8.6h13.8V40H334.8Z"/><path class="cls-2" d="M363.43,18.41H365l10,21.56h-1.74l-2.73-6H357.83l-2.72,6h-1.65Zm6.36,14.13-5.63-12.39L358.5,32.54Z"/><path class="cls-2" d="M379.45,18.56h1.6v20h12.57V40H379.45Z"/><path class="cls-2" d="M401.26,20H393.8V18.56h16.52V20h-7.47V40h-1.59Z"/><path class="cls-2" d="M422.12,31.5l-9.18-12.94h2l8,11.5,8-11.5h1.9l-9.18,12.91V40h-1.59Z"/><path class="cls-3" d="M58.35,26c0-.18,0-.35-.06-.53-1.41-5.71-33.53.8-33.55,3.63,0,2.47,19.05,6.94,19.42,9.25C44.58,41,31.62,48.3,27,48.26S10.82,28.88,11.38,24.73c.3-2.23,7.82-6.86,17-10.32,9.88-3.71,21.26-6.08,19-8.12a29.26,29.26,0,1,0,11.16,23c0-1,0-1.9-.14-2.84C58.38,26.31,58.37,26.18,58.35,26Z"/><path class="cls-4" d="M58.35,26c0-.18,0-.35-.06-.53-1.41-5.71-33.53.8-33.55,3.63,0,2.47,19.05,6.94,19.42,9.25C44.58,41,31.62,48.3,27,48.26S10.82,28.88,11.38,24.73c.3-2.23,7.82-6.86,17-10.32,9.88-3.71,21.26-6.08,19-8.12a29.26,29.26,0,1,0,11.16,23c0-1,0-1.9-.14-2.84C58.38,26.31,58.37,26.18,58.35,26Z"/><path class="cls-5" d="M58.4,26.43c0-.12,0-.25,0-.39s0-.35-.06-.53c-1.41-5.71-33.53.8-33.55,3.63,0,2,12.41,5.29,17.39,7.7h0l.08,0c4.72,2.2,11.32,9.55,6.34,14.37a29.18,29.18,0,0,0,10-22C58.54,28.31,58.49,27.37,58.4,26.43Z"/><path class="cls-6" d="M42.13,36.84h0l.08,0Zm.11,0,.46.24.14.08.3.17.12.08.32.21,0,0a1.84,1.84,0,0,1,.25.21l.06.07a.87.87,0,0,1,.13.15l0,.07a.5.5,0,0,1,.08.2.82.82,0,0,1,0,.27l0,.1a1.72,1.72,0,0,1-.07.21L44,39.1a2.12,2.12,0,0,1-.11.21.71.71,0,0,1-.1.14l-.16.23-.12.14-.22.26a1.59,1.59,0,0,1-.13.13q-.16.18-.36.36l0,0-.48.43-.13.1-.41.34-.18.14-.41.31-.2.14-.45.32-.2.14-.53.36-.14.09c-.73.47-1.5.94-2.3,1.39l-.08,0-.72.4-.12.07-.71.37-.06,0h0a31.33,31.33,0,0,1-7,2.76h0a7.27,7.27,0,0,1-.85.15h-.05l-.33,0H27a1.64,1.64,0,0,1-.42-.06l-.14,0-.31-.1L26,48l-.31-.16-.18-.1-.35-.23L25,47.37a6,6,0,0,1-.52-.4l-.19-.16c-.12-.1-.24-.2-.36-.32l-.27-.25-.3-.29-.3-.3-.27-.28L22.44,45l-.24-.26c-.44-.5-.9-1-1.35-1.63a1,1,0,0,1-.13-.16l-.44-.57-.16-.2-.44-.6-.13-.18-.47-.65c-4.17-5.93-8-13.59-7.7-16a2.58,2.58,0,0,1,.68-1.24c-6.2,6-11.32,16.77-6,23.63A28.51,28.51,0,0,0,25,58.22H25a29.29,29.29,0,0,0,15.58-2A39.7,39.7,0,0,0,47.73,52l.84-.72C53.55,46.43,47,39.09,42.24,36.89Z"/><path class="cls-7" d="M15.12,21h0ZM27,48.26c-4.63,0-16.21-19.38-15.65-23.53a2.58,2.58,0,0,1,.68-1.24c-6.2,6-11.32,16.77-6,23.63A28.51,28.51,0,0,0,25,58.22c2.56.3,3.42-5.12,3.65-10.16A7.74,7.74,0,0,1,27,48.26Z"/><path class="cls-8" d="M42.75,37.15h0c.83.45,1.35.86,1.41,1.23.31,1.9-6.77,6.45-12.31,8.65h0c-6.86,2.9-6.6,11.5-1.33,11.5s10.81-1.79,17.27-6.6C54,47.32,47.64,39.74,42.75,37.15Z"/></g></g></svg>